<svg width="294" height="284" viewBox="0 0 294 284" fill="none" xmlns="http://www.w3.org/2000/svg">
<path d="M261.313 100.69L292.318 69.3426C293.597 68.0523 294.198 66.2267 293.942 64.4193C293.689 62.6118 292.605 61.0289 291.022 60.149L253.747 39.4554C250.968 37.9133 247.478 38.9406 245.95 41.7504C244.425 44.5625 245.439 48.0912 248.22 49.6333L278.788 66.6031L252.179 93.5037L156.475 40.3716L183.082 13.471L209.978 28.4045C212.758 29.9466 216.25 28.9215 217.775 26.1094C219.303 23.2997 218.287 19.7687 215.505 18.2266L184.832 1.19548C182.593 -0.047268 179.812 0.354131 178.008 2.1797L147.001 33.5297L115.993 2.1797C114.187 0.354131 111.406 -0.0450004 109.169 1.19548L2.97926 60.149C1.39567 61.0289 0.312284 62.6096 0.0588198 64.4193C-0.196887 66.2267 0.404249 68.0523 1.68278 69.3426L32.6884 100.69L1.68278 132.036C0.404249 133.328 -0.196887 135.152 0.0588198 136.961C0.312284 138.769 1.39567 140.352 2.97926 141.229L35.0682 159.045V218.593C35.0682 220.713 36.2099 222.664 38.047 223.684L144.237 282.635C145.098 283.114 146.049 283.352 147.001 283.352C147.952 283.352 148.903 283.114 149.764 282.635L255.954 223.684C257.791 222.664 258.933 220.713 258.933 218.593V159.045L291.022 141.232C292.605 140.352 293.689 138.769 293.942 136.961C294.198 135.154 293.597 133.328 292.318 132.038L261.313 100.69ZM147.001 153.017L52.7411 100.688L147.001 48.3565L241.26 100.688L147.001 153.017ZM110.921 13.471L137.526 40.3716L41.822 93.5037L15.2151 66.6031L110.921 13.471ZM41.8265 107.875L137.53 161.007L110.921 187.91L15.2151 134.778L41.8265 107.875ZM247.448 215.159L152.743 267.736V208.39C152.743 205.183 150.172 202.585 147.001 202.585C143.829 202.585 141.258 205.183 141.258 208.39V267.736L46.5526 215.159V165.422L109.169 200.185C110.037 200.666 110.988 200.902 111.931 200.902C113.418 200.902 114.889 200.317 115.993 199.201L147.001 167.851L178.008 199.201C179.112 200.319 180.583 200.902 182.07 200.902C183.013 200.902 183.964 200.666 184.832 200.185L247.448 165.422V215.159ZM183.082 187.91L156.473 161.005L252.177 107.875L278.788 134.775L183.082 187.91Z" fill="black"/>
</svg>
