<svg width="82" height="82" viewBox="0 0 82 82" fill="none" xmlns="http://www.w3.org/2000/svg">
<path d="M44.6836 16.3459L15.9943 32.0994L41 45.8303L69.6892 30.0768L44.6836 16.3459Z" fill="#FEA02C"/>
<path d="M16.8276 64.9753L41.0175 78.2583V45.8297L16.8276 32.5468V64.9753Z" fill="#FFC66C"/>
<path d="M70.6176 62.0925V31.4269L53.1718 54.9937L47.0859 52.0308L47.1034 75.0044L70.6176 62.0925Z" fill="#FFB954"/>
<path d="M45.6445 43.7477L55.1232 53.2257L80.3984 39.3472L70.9198 29.8692L45.6445 43.7477Z" fill="#FEDA9B"/>
<path d="M5.87259 41.4824L31.355 55.4748L41 45.8297L15.5176 31.8373L5.87259 41.4824Z" fill="#FEDA9B"/>
<path d="M70.6176 29.567L80.334 19.8519L55.2652 6.086L45.5488 15.8024L70.6176 29.567Z" fill="#FEDA9B"/>
<path d="M6.88672 17.7048L16.1382 26.9557L41 13.3043L31.7485 4.05338L6.88672 17.7048Z" fill="#FEDA9B"/>
<path d="M72.883 29.567L81.5308 20.9192C81.8874 20.5632 82.0551 20.0596 81.9837 19.561C81.913 19.0624 81.6109 18.6257 81.1692 18.3829L70.7728 12.6742C69.9977 12.2488 69.0242 12.5322 68.5982 13.3074C68.1728 14.0831 68.4555 15.0566 69.2313 15.482L77.7571 20.1634L70.3355 27.5844L43.6426 12.927L51.0636 5.506L58.5653 9.62564C59.3404 10.0511 60.3145 9.76828 60.7399 8.99253C61.1659 8.2174 60.8825 7.24332 60.1068 6.81791L51.5515 2.11957C50.9272 1.77674 50.1514 1.88747 49.6484 2.39109L41 11.0395L32.3516 2.39109C31.8479 1.88747 31.0722 1.77736 30.4484 2.11957L0.8308 18.3829C0.389119 18.6257 0.0869493 19.0617 0.0162552 19.561C-0.0550643 20.0596 0.112599 20.5632 0.469197 20.9192L9.11701 29.567L0.469197 38.2142C0.112599 38.5708 -0.0550643 39.0737 0.0162552 39.573C0.0869493 40.0716 0.389119 40.5083 0.8308 40.7504L9.78078 45.6652V62.0924C9.78078 62.6774 10.0992 63.2154 10.6116 63.4969L40.2292 79.7597C40.4695 79.8917 40.7347 79.9574 41 79.9574C41.2653 79.9574 41.5305 79.8917 41.7707 79.7597L71.3884 63.4969C71.9008 63.2154 72.2192 62.6774 72.2192 62.0924V45.6652L81.1692 40.751C81.6109 40.5083 81.913 40.0716 81.9837 39.573C82.0551 39.0744 81.8874 38.5708 81.5308 38.2148L72.883 29.567ZM41 44.0023L14.71 29.5663L41 15.1298L67.29 29.5663L41 44.0023ZM30.9371 5.506L38.3574 12.927L11.6645 27.5844L4.2435 20.1634L30.9371 5.506ZM11.6657 31.5489L38.3587 46.2063L30.9371 53.6279L4.2435 38.9705L11.6657 31.5489ZM69.0161 61.1453L42.6016 75.6494V59.2778C42.6016 58.3932 41.8846 57.6763 41 57.6763C40.1154 57.6763 39.3984 58.3932 39.3984 59.2778V75.6494L12.9839 61.1453V47.4244L30.4484 57.0144C30.6906 57.147 30.9558 57.2121 31.2186 57.2121C31.6334 57.2121 32.0438 57.0507 32.3516 56.7429L41 48.0944L49.6484 56.7429C49.9562 57.0513 50.3666 57.2121 50.7814 57.2121C51.0442 57.2121 51.3094 57.147 51.5515 57.0144L69.0161 47.4244V61.1453ZM51.0636 53.6279L43.6419 46.2057L70.3349 31.5489L77.7571 38.9699L51.0636 53.6279Z" fill="black"/>
<path d="M64.8313 12.8407C65.2524 12.8407 65.664 12.6693 65.9637 12.3708C66.2615 12.073 66.4329 11.6601 66.4329 11.2391C66.4329 10.8174 66.2615 10.4045 65.9637 10.1068C65.6659 9.80833 65.2524 9.63754 64.8313 9.63754C64.4084 9.63754 63.9968 9.80833 63.699 10.1068C63.3993 10.4045 63.2298 10.8174 63.2298 11.2391C63.2298 11.6601 63.3993 12.073 63.699 12.3708C63.9968 12.6693 64.4103 12.8407 64.8313 12.8407Z" fill="black"/>
<path d="M41 52.3592C40.5789 52.3592 40.1654 52.53 39.8676 52.8284C39.5698 53.1274 39.3984 53.5391 39.3984 53.9608C39.3984 54.383 39.5698 54.7947 39.8676 55.0944C40.1654 55.3922 40.5789 55.5623 41 55.5623C41.421 55.5623 41.8345 55.3922 42.1323 55.0944C42.4301 54.7947 42.6015 54.383 42.6015 53.9608C42.6015 53.5391 42.4301 53.1274 42.1323 52.8284C41.8345 52.53 41.421 52.3592 41 52.3592Z" fill="black"/>
</svg>
