<svg width="101" height="101" viewBox="0 0 101 101" fill="none" xmlns="http://www.w3.org/2000/svg">
<path d="M17.7639 78.1072C16.3499 78.1072 14.9906 78.4601 13.7847 79.1228C7.43214 70.9794 3.94531 60.8634 3.94531 50.5C3.94531 24.8293 24.8293 3.94531 50.5 3.94531C53.6208 3.94531 56.7401 4.25585 59.7715 4.86845C60.838 5.08421 61.8798 4.39378 62.0955 3.32578C62.3113 2.25777 61.6208 1.2175 60.5528 1.00097C57.2648 0.336739 53.8828 0 50.5 0C37.0112 0 24.3292 5.25297 14.7911 14.7911C5.25297 24.3292 0 37.0112 0 50.5C0 61.8466 3.85284 72.9197 10.8673 81.7967C9.96423 83.1459 9.47877 84.7318 9.47877 86.3923C9.47877 88.6054 10.341 90.6859 11.9061 92.2502C13.4703 93.8152 15.5508 94.6775 17.7639 94.6775C19.977 94.6775 22.0575 93.8152 23.6226 92.2502C25.1876 90.6859 26.0491 88.6046 26.0491 86.3916C26.0491 84.1793 25.1876 82.0979 23.6226 80.5337C22.0575 78.9687 19.977 78.1072 17.7639 78.1072ZM20.8323 89.4607C20.0132 90.2806 18.9229 90.7322 17.7639 90.7322C16.605 90.7322 15.5154 90.2806 14.6955 89.4607C13.8756 88.6408 13.4241 87.5513 13.4241 86.3923C13.4241 85.2326 13.8756 84.143 14.6955 83.3232C15.5146 82.5033 16.605 82.0525 17.7639 82.0525C18.9229 82.0525 20.0124 82.504 20.8323 83.3232C21.6522 84.143 22.1038 85.2326 22.1038 86.3923C22.1038 87.5513 21.6522 88.6408 20.8323 89.4607Z" fill="white"/>
<path d="M90.1309 19.201C92.2754 15.9839 91.931 11.5855 89.0945 8.74903C87.5295 7.18478 85.4489 6.32251 83.2359 6.32251C81.0228 6.32251 78.9422 7.18478 77.3772 8.74903C75.8122 10.3141 74.9507 12.3946 74.9507 14.6077C74.9507 16.8207 75.8122 18.9013 77.3772 20.4663C78.9422 22.0313 81.0228 22.8928 83.2359 22.8928C84.6498 22.8928 86.0091 22.5399 87.2151 21.8772C93.5676 30.0214 97.0545 40.1366 97.0545 50.5C97.0545 76.1707 76.1705 97.0547 50.4998 97.0547C47.4098 97.0547 44.3198 96.7503 41.3169 96.1493C40.2489 95.9358 39.2094 96.6286 38.9952 97.6966C38.7817 98.7653 39.4745 99.8041 40.5425 100.018C43.7997 100.669 47.1501 101 50.4998 101C63.9886 101 76.6706 95.747 86.2087 86.2089C95.7468 76.6708 101 63.9888 101 50.5C101 39.1526 97.1462 28.0788 90.1309 19.201ZM80.1674 17.6768C79.3476 16.857 78.896 15.7674 78.896 14.6077C78.896 13.4487 79.3476 12.3591 80.1674 11.5393C80.9866 10.7194 82.0769 10.2678 83.2359 10.2678C84.3948 10.2678 85.4851 10.7194 86.305 11.5393C87.9964 13.2314 87.9964 15.9847 86.305 17.6768C85.4851 18.496 84.3948 18.9475 83.2359 18.9475C82.0761 18.9475 80.9866 18.496 80.1674 17.6768Z" fill="white"/>
<path d="M42.3594 84.4297C42.3594 85.5193 43.2432 86.4023 44.332 86.4023H56.6665C57.7561 86.4023 58.6392 85.5193 58.6392 84.4297V80.6054C61.2329 79.9072 63.7126 78.8793 66.0428 77.5369L68.7429 80.237C69.1128 80.6069 69.6144 80.8149 70.1384 80.8149C70.6608 80.8149 71.1632 80.6069 71.5331 80.2363L80.2513 71.5119C81.0211 70.7413 81.0211 69.4922 80.2513 68.7224L77.5543 66.0254C78.8967 63.6952 79.9246 61.2155 80.6227 58.6218H84.4324C85.522 58.6218 86.4051 57.7387 86.4051 56.6491V44.3146C86.4051 43.2251 85.522 42.342 84.4324 42.342H80.622C79.9238 39.749 78.8967 37.2693 77.5543 34.9391L80.2367 32.2568C80.6066 31.8869 80.8146 31.3845 80.8146 30.8613C80.8138 30.3381 80.6058 29.8357 80.2359 29.4658L71.5108 20.7476C70.741 19.9778 69.4919 19.9778 68.7213 20.7483L66.0428 23.4276C63.7126 22.0853 61.2329 21.0573 58.6392 20.3592V16.5703C58.6392 15.4807 57.7561 14.5977 56.6665 14.5977H44.332C43.2432 14.5977 42.3594 15.4807 42.3594 16.5703V20.36C39.7664 21.0573 37.2867 22.0853 34.9565 23.4276L32.2773 20.7483C31.5075 19.9785 30.2584 19.9778 29.4878 20.7476L20.7634 29.4666C20.3928 29.8364 20.1847 30.3381 20.1847 30.8613C20.1847 31.3845 20.3928 31.8869 20.7626 32.2568L23.445 34.9391C22.1027 37.2693 21.0747 39.7483 20.3766 42.342H16.5738C15.4842 42.342 14.6012 43.2251 14.6012 44.3139L14.5942 56.6484C14.5935 57.1716 14.8015 57.674 15.1714 58.0439C15.5413 58.4137 16.0429 58.6218 16.5669 58.6218H20.3766C21.0747 61.2155 22.1027 63.6952 23.445 66.0254L20.748 68.7224C19.9782 69.4922 19.9774 70.7413 20.748 71.5119L29.4662 80.2363C29.8361 80.6061 30.3377 80.8149 30.8609 80.8149H30.8617C31.3849 80.8149 31.8866 80.6069 32.2564 80.237L34.9558 77.5369C37.2867 78.8793 39.7664 79.9072 42.3594 80.6054V84.4297ZM35.7294 73.3882C34.9488 72.8835 33.9216 72.9929 33.2636 73.6502L30.8617 76.0521L24.9322 70.1179L27.3317 67.7176C27.989 67.0603 28.0985 66.0331 27.5937 65.2525C25.8052 62.4847 24.5477 59.4509 23.8572 56.2346C23.6615 55.3261 22.8586 54.6765 21.9285 54.6765H18.5403L18.5449 46.2873H21.9285C22.8586 46.2873 23.6615 45.6385 23.8572 44.7292C24.5477 41.5136 25.8052 38.4799 27.5937 35.712C28.0985 34.9314 27.989 33.9043 27.3317 33.247L24.9476 30.8621L30.8818 24.9325L33.2636 27.3151C33.9216 27.9724 34.948 28.0811 35.7294 27.5771C38.4965 25.7886 41.5302 24.5311 44.7466 23.8406C45.6551 23.6449 46.3047 22.8412 46.3047 21.9119V18.543H54.6939V21.9111C54.6939 22.8412 55.3427 23.6449 56.252 23.8399C59.4675 24.5311 62.502 25.7879 65.2692 27.5763C66.0497 28.0811 67.0769 27.9724 67.7342 27.3144L70.1168 24.9325L76.051 30.8621L73.6668 33.2462C73.0088 33.9043 72.9001 34.9314 73.4048 35.712C75.1933 38.4799 76.4501 41.5136 77.1413 44.7292C77.3363 45.6385 78.14 46.2873 79.07 46.2873H82.4598V54.6765H79.07C78.14 54.6765 77.337 55.3261 77.1413 56.2346C76.4509 59.4502 75.1933 62.4847 73.4048 65.2518C72.9001 66.0331 73.0095 67.0603 73.6668 67.7176L76.0664 70.1171L70.1368 76.0513L67.735 73.6502C67.0769 72.9921 66.0497 72.8835 65.2692 73.3882C62.5013 75.1767 59.4675 76.4335 56.252 77.1247C55.3427 77.3204 54.6939 78.1234 54.6939 79.0534V82.457H46.3047V79.0534C46.3047 78.1241 45.6551 77.3204 44.7466 77.1247C41.531 76.4343 38.4973 75.1767 35.7294 73.3882Z" fill="white"/>
<path d="M66.7999 50.5C66.7999 41.5121 59.488 34.2002 50.5 34.2002C41.5121 34.2002 34.2002 41.5121 34.2002 50.5C34.2002 59.4879 41.5121 66.7999 50.5 66.7999C59.488 66.7999 66.7999 59.4879 66.7999 50.5ZM38.1455 50.5C38.1455 43.6874 43.6874 38.1455 50.5 38.1455C57.3126 38.1455 62.8546 43.6882 62.8546 50.5C62.8546 57.3118 57.3126 62.8545 50.5 62.8545C43.6874 62.8545 38.1455 57.3126 38.1455 50.5Z" fill="white"/>
<path d="M68.6636 7.46066C69.1829 7.46066 69.6915 7.24952 70.0583 6.88273C70.4251 6.51363 70.6362 6.00505 70.6362 5.48569C70.6362 4.96941 70.4259 4.46006 70.0583 4.09096C69.6915 3.72417 69.1829 3.51303 68.6636 3.51303C68.1427 3.51303 67.6364 3.72417 67.2696 4.09096C66.9021 4.46006 66.6909 4.96709 66.6909 5.48569C66.6909 6.00659 66.9021 6.51363 67.2696 6.88273C67.6364 7.24952 68.1427 7.46066 68.6636 7.46066Z" fill="white"/>
<path d="M32.4224 93.5748C31.9038 93.5748 31.3944 93.7859 31.0276 94.1527C30.6608 94.5195 30.4497 95.0289 30.4497 95.5475C30.4497 96.0684 30.6608 96.5754 31.0276 96.9422C31.3944 97.309 31.9038 97.5201 32.4224 97.5201C32.941 97.5201 33.4503 97.309 33.8171 96.9422C34.1839 96.5754 34.395 96.066 34.395 95.5475C34.395 95.0289 34.1839 94.5195 33.8171 94.1527C33.4503 93.7859 32.941 93.5748 32.4224 93.5748Z" fill="white"/>
</svg>
