<svg width="1035" height="560" viewBox="0 0 1035 560" fill="none" xmlns="http://www.w3.org/2000/svg">
<path d="M0.759155 -69.988H37.579C37.579 -69.988 5.95708 7.53999 104.887 21.42C203.817 35.3 155.413 117.378 158.209 161.366C159.945 178.58 154.834 269.924 253.009 275.604C358.009 281.679 341.395 391.181 348.337 404.198C355.279 417.215 355.046 499.498 454.843 504.703C554.64 509.908 542.243 519.615 606.456 550.856C670.669 582.097 731.556 524.546 738.894 504.703C746.232 484.86 801.094 414.452 853.164 437.015C905.234 459.578 961.639 443.09 971.185 340.689C980.731 238.288 1030.19 298.167 1046.68 275.604C1063.18 253.041 1064.91 241.76 1064.91 241.76V-80.194L0.759155 -69.988Z" fill="#3FBF9A"/>
</svg>