<svg width="102" height="106" viewBox="0 0 102 106" fill="none" xmlns="http://www.w3.org/2000/svg">
<path d="M49.236 86.1591C45.3571 86.1591 42.2026 89.3135 42.2026 93.1925C42.2026 97.0714 45.3571 100.226 49.236 100.226C53.1149 100.226 56.2694 97.0714 56.2694 93.1925C56.2694 89.3135 53.1132 86.1591 49.236 86.1591ZM49.236 96.7092C47.2966 96.7092 45.7193 95.1319 45.7193 93.1925C45.7193 91.253 47.2966 89.6758 49.236 89.6758C51.1755 89.6758 52.7527 91.253 52.7527 93.1925C52.7527 95.1319 51.1755 96.7092 49.236 96.7092Z" fill="white"/>
<path d="M43.961 8.79178H50.9944C51.965 8.79178 52.7527 8.0058 52.7527 7.03343C52.7527 6.06107 51.965 5.27509 50.9944 5.27509H43.961C42.9904 5.27509 42.2026 6.06107 42.2026 7.03343C42.2026 8.0058 42.9886 8.79178 43.961 8.79178Z" fill="white"/>
<path d="M56.2691 8.79178H58.0274C58.9981 8.79178 59.7858 8.0058 59.7858 7.03343C59.7858 6.06107 58.9981 5.27509 58.0274 5.27509H56.2691C55.2985 5.27509 54.5107 6.06107 54.5107 7.03343C54.5107 8.0058 55.2967 8.79178 56.2691 8.79178Z" fill="white"/>
<path d="M5.63329 23.4599L5.18843 21.8C4.93699 20.8628 3.97693 20.3019 3.03445 20.5569C2.09725 20.8101 1.53986 21.7719 1.7913 22.7109L2.23616 24.3707C2.44717 25.1567 3.15754 25.6737 3.93297 25.6737C4.08243 25.6737 4.23716 25.6543 4.39014 25.6139C5.32734 25.3607 5.88474 24.3971 5.63329 23.4599Z" fill="white"/>
<path d="M1.95352 17.3425C2.92061 17.2493 3.62923 16.3912 3.53604 15.4259C3.52197 15.2835 3.51494 15.1446 3.51494 15.0021C3.51494 14.7349 3.54131 14.4694 3.58879 14.2126C3.77517 13.2579 3.1492 12.3383 2.19618 12.1536C1.24491 11.9796 0.321778 12.5967 0.138909 13.5498C0.045717 14.0333 0 14.5256 0 15.0057C0 15.2553 0.0123085 15.5068 0.0369253 15.7618C0.123084 16.6691 0.887965 17.3513 1.78472 17.3513C1.84099 17.3513 1.89726 17.3495 1.95352 17.3425Z" fill="white"/>
<path d="M10.082 40.0693L9.63715 38.4077C9.38571 37.4705 8.42389 36.906 7.48493 37.1645C6.54598 37.4159 5.98858 38.3778 6.24002 39.3185L6.68489 40.9801C6.89589 41.7643 7.6045 42.2831 8.38169 42.2831C8.53115 42.2831 8.68413 42.2637 8.8371 42.2233C9.77782 41.9718 10.3352 41.0083 10.082 40.0693Z" fill="white"/>
<path d="M18.9853 73.2879L18.5405 71.6281C18.289 70.6891 17.3272 70.1264 16.3865 70.3849C15.4493 70.6381 14.8919 71.5999 15.1434 72.5389L15.5882 74.1988C15.7992 74.9847 16.5096 75.5017 17.285 75.5017C17.4345 75.5017 17.5892 75.4823 17.7422 75.4419C18.6811 75.1887 19.2368 74.2251 18.9853 73.2879Z" fill="white"/>
<path d="M7.85838 31.7628L7.41352 30.1029C7.16208 29.164 6.20026 28.6013 5.25955 28.8598C4.32235 29.113 3.76496 30.0748 4.0164 31.0138L4.46126 32.6736C4.67226 33.4596 5.38263 33.9766 6.15806 33.9766C6.30752 33.9766 6.46226 33.9572 6.61523 33.9168C7.55419 33.6653 8.10983 32.7018 7.85838 31.7628Z" fill="white"/>
<path d="M6.36486 10.9421C6.51432 10.9421 6.6673 10.9228 6.82028 10.8823L8.48191 10.4375C9.41911 10.186 9.97651 9.22422 9.72507 8.2835C9.47362 7.3463 8.51357 6.77836 7.57109 7.04035L5.90945 7.48521C4.97225 7.73666 4.41486 8.69847 4.6663 9.63919C4.8773 10.4234 5.58768 10.9421 6.36486 10.9421Z" fill="white"/>
<path d="M14.6702 8.71443C14.8197 8.71443 14.9727 8.69509 15.1256 8.65465L16.7855 8.20979C17.7227 7.95834 18.2801 6.99477 18.0287 6.05581C17.7772 5.11686 16.8189 4.55419 15.8765 4.81266L14.2166 5.25753C13.2794 5.50897 12.722 6.47254 12.9734 7.4115C13.1827 8.19572 13.893 8.71443 14.6702 8.71443Z" fill="white"/>
<path d="M16.7589 64.9832L16.314 63.3216C16.0626 62.3844 15.099 61.8252 14.1601 62.0784C13.2211 62.3299 12.6655 63.2935 12.9169 64.2324L13.3618 65.8941C13.5728 66.68 14.2831 67.197 15.0586 67.197C15.208 67.197 15.3628 67.1777 15.514 67.1372C16.4547 66.8858 17.0103 65.9204 16.7589 64.9832Z" fill="white"/>
<path d="M12.3081 48.3739L11.8632 46.714C11.6118 45.7785 10.65 45.2159 9.70926 45.4708C8.77206 45.7223 8.21466 46.6858 8.46611 47.6248L8.91097 49.2847C9.12197 50.0689 9.83059 50.5876 10.6078 50.5876C10.7572 50.5876 10.9102 50.5683 11.0632 50.5278C12.0021 50.2764 12.5595 49.3111 12.3081 48.3739Z" fill="white"/>
<path d="M14.5347 56.6768L14.0898 55.0169C13.8384 54.0797 12.8765 53.5135 11.9358 53.7737C10.9986 54.0252 10.4412 54.9887 10.6927 55.9277L11.1375 57.5876C11.3485 58.3718 12.0571 58.8905 12.8343 58.8905C12.9838 58.8905 13.1368 58.8712 13.2897 58.8307C14.2287 58.5793 14.7861 57.6157 14.5347 56.6768Z" fill="white"/>
<path d="M96.7443 28.8615C95.8018 28.6048 94.8417 29.1657 94.5903 30.1047L94.1454 31.7646C93.894 32.7018 94.4496 33.6653 95.3886 33.9185C95.5416 33.959 95.6945 33.9783 95.8458 33.9783C96.6212 33.9783 97.3333 33.4614 97.5426 32.6754L97.9874 31.0155C98.2371 30.0765 97.6815 29.1147 96.7443 28.8615Z" fill="white"/>
<path d="M98.9663 20.5551C98.0221 20.2984 97.0638 20.8628 96.8123 21.7982L96.3675 23.4581C96.116 24.3953 96.6734 25.3607 97.6106 25.6121C97.7636 25.6525 97.9166 25.6719 98.066 25.6719C98.8432 25.6719 99.5536 25.1532 99.7628 24.3689L100.208 22.7091C100.461 21.7719 99.9053 20.8065 98.9663 20.5551Z" fill="white"/>
<path d="M101.863 13.5515C101.681 12.6002 100.765 11.9831 99.8053 12.1554C98.8523 12.3382 98.2263 13.2596 98.4092 14.2144C98.4584 14.4711 98.4848 14.7366 98.483 15.0057C98.483 15.1463 98.476 15.2852 98.4619 15.4259C98.3705 16.393 99.0791 17.2511 100.044 17.3443C100.101 17.3513 100.157 17.353 100.213 17.353C101.11 17.353 101.875 16.6708 101.963 15.7635C101.987 15.5085 102 15.2571 102 15.0092C102.001 14.5256 101.956 14.035 101.863 13.5515Z" fill="white"/>
<path d="M85.2166 8.20974L86.8765 8.65461C87.0295 8.69505 87.1825 8.71439 87.3319 8.71439C88.1091 8.71439 88.8195 8.19568 89.0287 7.41146C89.2802 6.47426 88.7228 5.50893 87.7856 5.25748L86.1257 4.81262C85.1797 4.55414 84.2232 5.11857 83.9717 6.05577C83.722 6.99473 84.2794 7.9583 85.2166 8.20974Z" fill="white"/>
<path d="M93.521 10.4375L95.1826 10.8824C95.3356 10.9228 95.4886 10.9422 95.638 10.9422C96.4152 10.9422 97.1256 10.4234 97.3348 9.63922C97.5863 8.70026 97.0289 7.73669 96.0917 7.48525L94.43 7.04038C93.4876 6.78015 92.5257 7.34634 92.276 8.28354C92.0264 9.22249 92.582 10.1861 93.521 10.4375Z" fill="white"/>
<path d="M94.5177 37.1662C93.577 36.9148 92.6134 37.4722 92.3637 38.4094L91.9189 40.0693C91.6674 41.0065 92.2231 41.97 93.162 42.2232C93.315 42.2637 93.468 42.283 93.6192 42.283C94.3946 42.283 95.1067 41.7661 95.316 40.9801L95.7608 39.3202C96.0123 38.3813 95.4549 37.4177 94.5177 37.1662Z" fill="white"/>
<path d="M83.3914 78.6878C82.4559 78.4381 81.4888 78.992 81.2374 79.9309L80.9015 81.1829V80.8804C80.9015 80.8505 80.8857 80.8259 80.884 80.796V74.0879C80.8857 74.0581 80.9015 74.0334 80.9015 74.0035V72.2839C80.9015 72.254 80.8857 72.2294 80.884 72.1995V65.4914C80.8857 65.4615 80.9015 65.4369 80.9015 65.407V63.6873C80.9015 63.6574 80.8857 63.6328 80.884 63.6029V56.8948C80.8857 56.8649 80.9015 56.8403 80.9015 56.8104V55.0908C80.9015 55.0609 80.8857 55.0363 80.884 55.0064V48.2983C80.8857 48.2684 80.9015 48.2438 80.9015 48.2139V46.4942C80.9015 46.4643 80.8857 46.4397 80.884 46.4098V39.7017C80.8857 39.6718 80.9015 39.6472 80.9015 39.6173V37.8924C80.9015 37.8625 80.8857 37.8379 80.884 37.808V31.0999C80.8857 31.07 80.9015 31.0454 80.9015 31.0155V29.2941C80.9015 29.2642 80.8857 29.2395 80.884 29.2097V22.5033C80.8857 22.4734 80.9015 22.4488 80.9015 22.4189V20.6975C80.9015 20.6676 80.8857 20.643 80.884 20.6131V13.905C80.8857 13.8751 80.9015 13.8505 80.9015 13.8206V12.0992C80.9015 12.0693 80.8857 12.0447 80.884 12.0148V7.74552C80.8857 3.47625 77.4112 0 73.1384 0H28.8474C24.5764 0 21.1019 3.47625 21.1019 7.74552V12.0957V12.0992V13.8188V13.8224V20.6922V20.6957V22.4154V22.4189V29.287V29.2905V31.012V31.0155V37.8836V37.8871V39.6085V39.612V46.4801V46.4837V48.2051V48.2086V55.0767V55.0802V56.8016V56.8052V63.6733V63.6768V65.3982V65.4017V72.2698V72.2733V73.993V73.9965V80.8664V80.8699V81.1723L20.7661 79.9204C20.5146 78.9832 19.5528 78.417 18.6121 78.6772C17.6749 78.9287 17.1175 79.8923 17.3689 80.8312L17.8138 82.4911C18.0652 83.4265 19.0235 83.991 19.9678 83.7342C20.49 83.5953 20.8891 83.2331 21.1037 82.7812V86.9538C21.0157 86.9643 20.9278 86.9573 20.8399 86.9819C19.9027 87.2333 19.3453 88.1969 19.5968 89.1359L20.0416 90.7958C20.1911 91.3549 20.6025 91.7664 21.1037 91.9633V97.7448C21.1037 102.016 24.5782 105.49 28.8492 105.49H73.1384C77.4095 105.49 80.884 102.014 80.884 97.7448V91.9721C81.3939 91.7787 81.8124 91.3655 81.9636 90.7975L82.4084 89.1376C82.6599 88.2004 82.1025 87.2351 81.1653 86.9837C81.0703 86.9591 80.9789 86.9643 80.884 86.9555V82.7988C80.8857 82.79 80.891 82.783 80.891 82.7724C81.102 83.2314 81.5082 83.5953 82.0339 83.736C82.9729 83.9874 83.9365 83.4318 84.1879 82.4928L84.6328 80.8312C84.886 79.9028 84.3303 78.9392 83.3914 78.6878ZM24.6186 14.0668H77.369V80.884H24.6186V14.0668ZM28.8474 3.51669H73.1384C75.47 3.51669 77.3673 5.41395 77.3673 7.74552V10.5501H24.6168V7.74552C24.6186 5.41395 26.5159 3.51669 28.8474 3.51669ZM73.1384 101.984H28.8474C26.5159 101.984 24.6186 100.087 24.6186 97.7553V84.4007H77.369V97.7553C77.369 100.087 75.4718 101.984 73.1384 101.984Z" fill="white"/>
<path d="M87.8423 62.0802C86.8981 61.8218 85.9398 62.3862 85.6883 63.3234L85.2435 64.9833C84.992 65.9205 85.5494 66.8858 86.4866 67.1373C86.6396 67.1777 86.7926 67.197 86.942 67.197C87.7192 67.197 88.4296 66.6783 88.6388 65.8941L89.0837 64.2342C89.3369 63.2953 88.7795 62.3299 87.8423 62.0802Z" fill="white"/>
<path d="M85.6173 70.3831C84.6731 70.1264 83.7148 70.6873 83.4633 71.6263L83.0185 73.2862C82.767 74.2234 83.3227 75.1869 84.2616 75.4401C84.4146 75.4806 84.5676 75.4999 84.7188 75.4999C85.4942 75.4999 86.2063 74.983 86.4156 74.197L86.8605 72.5371C87.1119 71.5999 86.5545 70.6363 85.6173 70.3831Z" fill="white"/>
<path d="M90.0661 53.7737C89.1271 53.5135 88.1636 54.0797 87.9139 55.0169L87.469 56.6785C87.2176 57.6175 87.775 58.581 88.7139 58.8325C88.8652 58.8729 89.0181 58.8923 89.1693 58.8923C89.9465 58.8923 90.6569 58.3736 90.8661 57.5893L91.311 55.9277C91.5607 54.987 91.0033 54.0252 90.0661 53.7737Z" fill="white"/>
<path d="M92.292 45.4691C91.3478 45.2141 90.3895 45.7768 90.138 46.7122L89.6932 48.3721C89.4417 49.3093 89.9991 50.2746 90.9363 50.5261C91.0893 50.5665 91.2423 50.5858 91.3917 50.5858C92.1689 50.5858 92.8793 50.0671 93.0885 49.2829L93.5334 47.623C93.7866 46.6858 93.2292 45.7205 92.292 45.4691Z" fill="white"/>
</svg>
