<svg width="101" height="91" viewBox="0 0 101 91" fill="none" xmlns="http://www.w3.org/2000/svg">
<path d="M32.5412 60.2188H32.5458C32.5497 60.2188 32.5535 60.218 32.5574 60.218H86.2052C87.526 60.218 88.6872 59.3265 89.0502 58.0343L100.886 15.8817C101.141 14.973 100.962 13.996 100.404 13.2417C99.8443 12.4874 98.9697 12.0436 98.0412 12.0436H25.717L23.6018 2.35776C23.3005 0.980111 22.1 0 20.7129 0H2.95899C1.32461 0 0 1.34785 0 3.0109C0 4.67395 1.32461 6.0218 2.95899 6.0218H18.3396C18.7141 7.73817 28.4618 52.3732 29.0228 54.9411C25.8781 56.3321 23.6719 59.5225 23.6719 63.2289C23.6719 68.2095 27.6542 72.2616 32.5489 72.2616H86.2052C87.8396 72.2616 89.1642 70.9138 89.1642 69.2507C89.1642 67.5877 87.8396 66.2398 86.2052 66.2398H32.5489C30.9176 66.2398 29.5899 64.8889 29.5899 63.2289C29.5899 61.5714 30.913 60.2227 32.5412 60.2188ZM94.1182 18.0654L83.9729 54.1962H34.9222L27.0316 18.0654H94.1182Z" fill="white"/>
<path d="M29.5898 81.2943C29.5898 86.2749 33.5722 90.327 38.4668 90.327C43.3615 90.327 47.3438 86.2749 47.3438 81.2943C47.3438 76.3138 43.3615 72.2616 38.4668 72.2616C33.5722 72.2616 29.5898 76.3138 29.5898 81.2943ZM38.4668 78.2834C40.0981 78.2834 41.4258 79.6344 41.4258 81.2943C41.4258 82.9542 40.0981 84.3052 38.4668 84.3052C36.8355 84.3052 35.5078 82.9542 35.5078 81.2943C35.5078 79.6344 36.8355 78.2834 38.4668 78.2834Z" fill="white"/>
<path d="M71.4102 81.2943C71.4102 86.2749 75.3925 90.327 80.2871 90.327C85.1818 90.327 89.1641 86.2749 89.1641 81.2943C89.1641 76.3138 85.1818 72.2616 80.2871 72.2616C75.3925 72.2616 71.4102 76.3138 71.4102 81.2943ZM80.2871 78.2834C81.9184 78.2834 83.2461 79.6344 83.2461 81.2943C83.2461 82.9542 81.9184 84.3052 80.2871 84.3052C78.6558 84.3052 77.3281 82.9542 77.3281 81.2943C77.3281 79.6344 78.6558 78.2834 80.2871 78.2834Z" fill="white"/>
</svg>
