<svg width="353" height="784" viewBox="0 0 353 784" fill="none" xmlns="http://www.w3.org/2000/svg">
<path d="M373.309 3.22011L382.125 25.0155C382.125 25.0155 328.666 24.8591 344.133 86.747C359.599 148.635 299.43 139.635 274.06 151.824C264.285 156.973 208.99 175.82 229.138 235.298C250.687 298.91 181.891 315.294 175.845 322.521C169.798 329.749 121.039 349.314 141.854 409.636C162.67 469.959 153.954 464.941 150.839 510.436C147.724 555.93 196.371 578.192 209.874 577.781C223.377 577.37 278.194 592.99 277.306 629.214C276.418 665.439 299.686 694.882 362.589 676.011C425.491 657.141 401.89 700.76 419.195 705.117C436.499 709.473 443.593 707.799 443.593 707.799L634.174 630.703L373.309 3.22011Z" fill="#3FBF9A"/>
</svg>
