<svg width="477" height="998" viewBox="0 0 477 998" fill="none" xmlns="http://www.w3.org/2000/svg">
<path d="M-31.6868 995.075L-39.6471 965.385C-39.6471 965.385 29.7022 974.127 19.507 891.35C9.31173 808.572 85.9601 829.862 120.825 818.098C134.331 812.976 209.092 797.349 192.446 716.954C174.643 630.971 266.534 620.696 275.529 612.285C284.524 603.874 350.923 586.272 333.551 504.678C316.179 423.083 326.681 430.981 337.989 372.445C349.297 313.91 289.726 277.254 272.14 275.631C254.554 274.008 185.918 244.987 192.856 198.123C199.795 151.259 174.303 109.34 89.6672 123.781C5.0315 138.221 42.6214 85.3916 20.8629 76.9736C-0.895579 68.5556 -10.3672 69.5968 -10.3672 69.5968L-269.981 139.203L-31.6868 995.075Z" fill="#3FBF9A"/>
</svg>