<svg width="104" height="91" viewBox="0 0 104 91" fill="none" xmlns="http://www.w3.org/2000/svg">
<path d="M73.8874 49.4499H59.7558C55.8882 49.4499 52.7432 52.595 52.7432 56.4626V67.3003C52.7432 71.1679 55.8882 74.313 59.7558 74.313H73.8874C77.755 74.313 80.9001 71.1679 80.9001 67.3003V56.4626C80.9001 52.595 77.755 49.4499 73.8874 49.4499ZM75.8 67.3003C75.8 68.3629 74.9287 69.2129 73.8874 69.2129H59.7558C58.6933 69.2129 57.8433 68.3416 57.8433 67.3003V56.4626C57.8433 55.4001 58.7146 54.55 59.7558 54.55H73.8874C74.95 54.55 75.8 55.4213 75.8 56.4626V67.3003Z" fill="white"/>
<path d="M104 29.7507C104 29.3045 103.894 28.8794 103.66 28.4969L88.1896 1.29628C87.7434 0.510013 86.8933 0 85.9796 0H17.9992C17.0854 0 16.2354 0.488762 15.7891 1.29628L0.340008 28.4969C0.127503 28.8794 0 29.3045 0 29.7507C0 35.8496 3.67634 41.0772 8.92521 43.3935V88.2534C8.92521 89.6559 10.0727 90.8034 11.4753 90.8034H25.5644C25.5856 90.8034 25.6069 90.8034 25.6281 90.8034H45.3911C45.4123 90.8034 45.4336 90.8034 45.4548 90.8034H92.5035C93.906 90.8034 95.0535 89.6559 95.0535 88.2534V43.7123C95.0535 43.606 95.0535 43.521 95.0323 43.436C100.302 41.1197 104 35.8709 104 29.7507ZM19.4867 5.12137H84.492L96.5836 26.3931H7.41643L19.4867 5.12137ZM74.0155 31.472C73.208 36.0621 69.1917 39.5472 64.3678 39.5472C59.5439 39.5472 55.5276 36.0621 54.7201 31.472H74.0155ZM49.3012 31.472C48.4937 36.0621 44.4773 39.5472 39.6535 39.5472C34.8296 39.5472 30.8132 36.0621 29.9845 31.472H49.3012ZM5.27013 31.472H24.5868C23.7793 36.0621 19.7417 39.5472 14.9179 39.5472C10.094 39.5684 6.07765 36.0621 5.27013 31.472ZM42.841 85.7033H28.1782V58.1839C28.1782 56.1864 29.7932 54.5501 31.812 54.5501H39.2284C41.226 54.5501 42.8623 56.1651 42.8623 58.1839V85.7033H42.841ZM89.9534 85.7033H47.9412V58.1839C47.9412 53.3813 44.0311 49.4499 39.2072 49.4499H31.7908C26.9882 49.4499 23.0568 53.36 23.0568 58.1839V85.7246H14.0253V44.6473C14.3228 44.6686 14.6204 44.6686 14.9179 44.6686C20.0605 44.6686 24.6081 42.0548 27.2857 38.0809C29.9632 42.0548 34.5108 44.6686 39.6535 44.6686C44.7961 44.6686 49.3224 42.0548 52.0213 38.0809C54.6988 42.0548 59.2464 44.6686 64.3678 44.6686C69.5104 44.6686 74.0368 42.0548 76.7143 38.0809C79.3919 42.0548 83.9395 44.6686 89.0821 44.6686C89.3797 44.6686 89.6559 44.6473 89.9534 44.6473V85.7033ZM89.0821 39.5685C84.2583 39.5685 80.2419 36.0834 79.4344 31.4933H98.7511C97.9224 36.0621 93.906 39.5685 89.0821 39.5685Z" fill="white"/>
</svg>
